<svg width="18" height="15" viewBox="0 0 18 15" fill="none" xmlns="http://www.w3.org/2000/svg">
<path fill-rule="evenodd" clip-rule="evenodd" d="M17.2928 8.32285C17.6922 8.26787 18 7.92047 18 7.50011C18 7.04154 17.6337 6.66979 17.1818 6.66979L2.80007 6.66979L7.99531 1.41866L8.07472 1.3257C8.31304 1.00114 8.28757 0.539803 7.9977 0.244412C7.67884 -0.0805188 7.1608 -0.0816073 6.84062 0.241981L0.25226 6.90045C0.213041 6.93858 0.177555 6.98063 0.146416 7.02599C-0.0766354 7.35024 -0.0452156 7.80006 0.240669 8.08894L6.84067 14.7581L6.9326 14.8383C7.25342 15.0787 7.7079 15.051 7.99775 14.7555C8.31658 14.4306 8.31546 13.9049 7.99526 13.5813L2.79877 8.33043L17.1818 8.33043L17.2928 8.32285Z" fill="white"/>
</svg>
