<svg width="710" height="116" viewBox="0 0 710 116" fill="none" xmlns="http://www.w3.org/2000/svg">
<g filter="url(#filter0_b_1_2877)">
<path fill-rule="evenodd" clip-rule="evenodd" d="M36.6657 10.6431C61.4794 17.727 80.8962 37.0896 88.0497 61.8833V61.8833C97.2967 93.933 126.631 116 159.988 116L549.542 116C582.899 116 612.233 93.933 621.479 61.8833V61.8833C628.633 37.0896 648.049 17.727 672.863 10.6431L709.456 0.196182C709.568 0.164345 709.545 2.2861e-05 709.429 2.28558e-05L605.866 0L605.865 1.81582e-05L103.663 2.28882e-05L0.100076 2.28558e-05C-0.015897 2.2861e-05 -0.0388921 0.164345 0.0726254 0.196182L36.6657 10.6431Z" fill="#2E3559" fill-opacity="0.5"/>
</g>
<defs>
<filter id="filter0_b_1_2877" x="-60" y="-60" width="829.529" height="236" filterUnits="userSpaceOnUse" color-interpolation-filters="sRGB">
<feFlood flood-opacity="0" result="BackgroundImageFix"/>
<feGaussianBlur in="BackgroundImageFix" stdDeviation="30"/>
<feComposite in2="SourceAlpha" operator="in" result="effect1_backgroundBlur_1_2877"/>
<feBlend mode="normal" in="SourceGraphic" in2="effect1_backgroundBlur_1_2877" result="shape"/>
</filter>
</defs>
</svg>
