<svg width="38" height="15" viewBox="0 0 38 15" fill="none" xmlns="http://www.w3.org/2000/svg">
<path fill-rule="evenodd" clip-rule="evenodd" d="M0.707159 6.67715C0.307804 6.73213 -3.46215e-07 7.07953 -3.2784e-07 7.49989C-3.07795e-07 7.95846 0.366312 8.33021 0.818182 8.33021L35.1999 8.33021L30.0047 13.5813L29.9253 13.6743C29.687 13.9989 29.7124 14.4602 30.0023 14.7556C30.3212 15.0805 30.8392 15.0816 31.1594 14.758L37.7477 8.09954C37.787 8.06141 37.8224 8.01936 37.8536 7.97401C38.0766 7.64976 38.0452 7.19994 37.7593 6.91106L31.1593 0.241931L31.0674 0.161736C30.7466 -0.0787481 30.2921 -0.0509561 30.0023 0.24446C29.6834 0.569418 29.6845 1.09514 30.0047 1.41871L35.2012 6.66957L0.818182 6.66957L0.707159 6.67715Z" fill="white"/>
</svg>
