<svg width="11" height="18" viewBox="0 0 11 18" fill="none" xmlns="http://www.w3.org/2000/svg">
<path d="M5.59779 15.3892C4.64979 15.3892 3.80979 15.2212 3.07779 14.8852C2.34579 14.5492 1.76979 14.0572 1.34979 13.4092C0.941793 12.7492 0.737793 11.9512 0.737793 11.0152V10.5652H2.66379V11.0152C2.66379 11.9032 2.92779 12.5692 3.45579 13.0132C3.99579 13.4572 4.70979 13.6792 5.59779 13.6792C6.49779 13.6792 7.17579 13.4932 7.63179 13.1212C8.08779 12.7372 8.31579 12.2452 8.31579 11.6452C8.31579 11.2492 8.20779 10.9252 7.99179 10.6732C7.78779 10.4212 7.48779 10.2232 7.09179 10.0792C6.69579 9.92322 6.22179 9.77922 5.66979 9.64722L5.00379 9.48522C4.19979 9.29322 3.50379 9.05922 2.91579 8.78322C2.32779 8.49522 1.87179 8.11722 1.54779 7.64922C1.22379 7.18122 1.06179 6.58122 1.06179 5.84922C1.06179 5.10522 1.24179 4.46922 1.60179 3.94122C1.96179 3.41322 2.46579 3.00522 3.11379 2.71722C3.76179 2.42922 4.52379 2.28522 5.39979 2.28522C6.27579 2.28522 7.05579 2.43522 7.73979 2.73522C8.43579 3.03522 8.98179 3.47922 9.37779 4.06722C9.78579 4.65522 9.98979 5.39322 9.98979 6.28122V6.92922H8.06379V6.28122C8.06379 5.74122 7.94979 5.30322 7.72179 4.96722C7.50579 4.63122 7.19379 4.38522 6.78579 4.22922C6.38979 4.07322 5.92779 3.99522 5.39979 3.99522C4.63179 3.99522 4.03779 4.15722 3.61779 4.48122C3.19779 4.79322 2.98779 5.23122 2.98779 5.79522C2.98779 6.17922 3.07779 6.49722 3.25779 6.74922C3.44979 6.98922 3.72579 7.18722 4.08579 7.34322C4.44579 7.49922 4.88979 7.63722 5.41779 7.75722L6.08379 7.91922C6.89979 8.09922 7.61979 8.33322 8.24379 8.62122C8.86779 8.89722 9.35379 9.27522 9.70179 9.75522C10.0618 10.2352 10.2418 10.8532 10.2418 11.6092C10.2418 12.3652 10.0498 13.0252 9.66579 13.5892C9.29379 14.1532 8.75979 14.5972 8.06379 14.9212C7.36779 15.2332 6.54579 15.3892 5.59779 15.3892ZM4.69779 17.2252V0.449219H6.47979V17.2252H4.69779Z" fill="white"/>
</svg>
