<svg width="265" height="14" viewBox="0 0 265 14" fill="none" xmlns="http://www.w3.org/2000/svg">
<path d="M10.0748 13.216C13.0988 13.216 15.2948 12.496 16.6808 11.038C16.6988 11.866 16.7168 13 16.7168 13H19.8128V5.962H10.1468V8.338H15.5288V8.374C15.5288 8.446 15.4748 8.554 15.3848 8.698C15.2768 8.824 15.0788 8.986 14.8268 9.148C14.5568 9.328 14.2328 9.49 13.8548 9.634C13.4768 9.778 12.9728 9.904 12.3248 10.012C11.6948 10.102 10.9928 10.156 10.2368 10.156C8.49083 10.156 7.19483 9.832 6.33083 9.166C5.48483 8.5 5.05283 7.708 5.05283 6.79V6.592C5.05283 4.342 6.79883 3.208 10.2728 3.208C13.0628 3.208 14.6828 3.802 15.1508 4.99H19.7048V4.972C19.7048 4.576 19.6328 4.198 19.4888 3.82C19.3628 3.442 19.0928 3.028 18.6788 2.56C18.2828 2.11 17.7608 1.714 17.1308 1.39C16.5008 1.048 15.6188 0.778 14.5028 0.543999C13.3868 0.327999 12.0908 0.219999 10.6328 0.219999H9.84083C8.32883 0.219999 6.99683 0.346 5.86283 0.633999C4.71083 0.922 3.81083 1.264 3.16283 1.696C2.51483 2.11 1.97483 2.614 1.56083 3.19C1.14683 3.766 0.876828 4.324 0.750828 4.828C0.624828 5.35 0.570828 5.872 0.570828 6.43V6.898C0.570828 7.456 0.642828 7.996 0.786828 8.536C0.948828 9.058 1.23683 9.616 1.65083 10.21C2.06483 10.786 2.60483 11.29 3.25283 11.722C3.91883 12.154 4.80083 12.514 5.89883 12.802C7.01483 13.072 8.27483 13.216 9.69683 13.216H10.0748ZM30.8915 0.202C29.6855 0.202 28.6055 0.274 27.6155 0.436C26.6435 0.579999 25.8155 0.778 25.1495 1.03C24.5015 1.282 23.9255 1.588 23.4395 1.948C22.9355 2.308 22.5575 2.668 22.2695 3.028C21.9995 3.388 21.7835 3.784 21.6215 4.216C21.4415 4.648 21.3335 5.044 21.2975 5.368C21.2435 5.71 21.2255 6.052 21.2255 6.43V6.934C21.2255 7.294 21.2435 7.654 21.2975 7.996C21.3335 8.32 21.4415 8.716 21.6215 9.148C21.7835 9.58 21.9995 9.976 22.2695 10.354C22.5575 10.714 22.9355 11.074 23.4395 11.452C23.9435 11.812 24.5195 12.118 25.1675 12.388C25.8155 12.64 26.6435 12.838 27.6155 13C28.6055 13.162 29.6855 13.234 30.8915 13.234H31.4675C32.6735 13.234 33.7535 13.162 34.7255 13C35.7155 12.838 36.5255 12.64 37.1735 12.388C37.8215 12.118 38.3975 11.812 38.9015 11.452C39.4055 11.074 39.7835 10.714 40.0535 10.354C40.3235 9.976 40.5395 9.58 40.7195 9.148C40.8815 8.716 41.0075 8.32 41.0435 7.996C41.0975 7.654 41.1155 7.294 41.1155 6.934V6.43C41.1155 6.052 41.0975 5.71 41.0435 5.368C41.0075 5.026 40.8815 4.648 40.7195 4.216C40.5395 3.784 40.3235 3.388 40.0355 3.028C39.7655 2.668 39.3875 2.308 38.8835 1.948C38.3975 1.588 37.8215 1.282 37.1735 1.03C36.5075 0.778 35.6975 0.579999 34.7255 0.436C33.7535 0.274 32.6735 0.202 31.4675 0.202H30.8915ZM36.6155 6.79C36.6155 7.186 36.5435 7.582 36.3815 7.942C36.2375 8.302 35.9675 8.662 35.5895 9.004C35.2115 9.364 34.6355 9.652 33.8615 9.85C33.1955 10.048 32.3855 10.138 31.4675 10.174C31.3235 10.174 31.1075 10.174 31.0175 10.174C30.0275 10.156 29.1635 10.048 28.4435 9.85C27.6695 9.634 27.1115 9.346 26.7335 8.986C26.3735 8.626 26.1035 8.266 25.9595 7.906C25.7975 7.546 25.7255 7.15 25.7255 6.754V6.556C25.7255 4.414 27.4715 3.316 30.9455 3.244C31.0535 3.244 31.3775 3.244 31.5395 3.262C32.2415 3.28 32.8715 3.334 33.4295 3.46C34.0955 3.604 34.6355 3.784 35.0315 4C35.4275 4.198 35.7515 4.468 35.9855 4.774C36.2375 5.08 36.3995 5.368 36.4895 5.656C36.5795 5.926 36.6155 6.232 36.6155 6.556V6.79ZM52.3862 0.436V13H56.6522V8.014H66.3002V5.152H56.6522V3.28H66.5342V0.436H52.3862ZM77.2978 0.202C76.0918 0.202 75.0118 0.274 74.0218 0.436C73.0498 0.579999 72.2218 0.778 71.5558 1.03C70.9078 1.282 70.3318 1.588 69.8458 1.948C69.3418 2.308 68.9638 2.668 68.6758 3.028C68.4058 3.388 68.1898 3.784 68.0278 4.216C67.8478 4.648 67.7398 5.044 67.7038 5.368C67.6498 5.71 67.6318 6.052 67.6318 6.43V6.934C67.6318 7.294 67.6498 7.654 67.7038 7.996C67.7398 8.32 67.8478 8.716 68.0278 9.148C68.1898 9.58 68.4058 9.976 68.6758 10.354C68.9638 10.714 69.3418 11.074 69.8458 11.452C70.3498 11.812 70.9258 12.118 71.5738 12.388C72.2218 12.64 73.0498 12.838 74.0218 13C75.0118 13.162 76.0918 13.234 77.2978 13.234H77.8738C79.0798 13.234 80.1598 13.162 81.1318 13C82.1218 12.838 82.9318 12.64 83.5798 12.388C84.2278 12.118 84.8038 11.812 85.3078 11.452C85.8118 11.074 86.1898 10.714 86.4598 10.354C86.7298 9.976 86.9458 9.58 87.1258 9.148C87.2878 8.716 87.4138 8.32 87.4498 7.996C87.5038 7.654 87.5218 7.294 87.5218 6.934V6.43C87.5218 6.052 87.5038 5.71 87.4498 5.368C87.4138 5.026 87.2878 4.648 87.1258 4.216C86.9458 3.784 86.7298 3.388 86.4418 3.028C86.1718 2.668 85.7938 2.308 85.2898 1.948C84.8038 1.588 84.2278 1.282 83.5798 1.03C82.9138 0.778 82.1038 0.579999 81.1318 0.436C80.1598 0.274 79.0798 0.202 77.8738 0.202H77.2978ZM83.0218 6.79C83.0218 7.186 82.9498 7.582 82.7878 7.942C82.6438 8.302 82.3738 8.662 81.9958 9.004C81.6178 9.364 81.0418 9.652 80.2678 9.85C79.6018 10.048 78.7918 10.138 77.8738 10.174C77.7298 10.174 77.5138 10.174 77.4238 10.174C76.4338 10.156 75.5698 10.048 74.8498 9.85C74.0758 9.634 73.5178 9.346 73.1398 8.986C72.7798 8.626 72.5098 8.266 72.3658 7.906C72.2038 7.546 72.1318 7.15 72.1318 6.754V6.556C72.1318 4.414 73.8778 3.316 77.3518 3.244C77.4598 3.244 77.7838 3.244 77.9458 3.262C78.6478 3.28 79.2778 3.334 79.8358 3.46C80.5018 3.604 81.0418 3.784 81.4378 4C81.8338 4.198 82.1578 4.468 82.3918 4.774C82.6438 5.08 82.8058 5.368 82.8958 5.656C82.9858 5.926 83.0218 6.232 83.0218 6.556V6.79ZM103.992 7.762C103.56 7.276 102.984 6.952 102.282 6.754C103.812 6.25 104.586 5.35 104.586 4.036V3.838C104.586 1.696 102.786 0.616 99.1861 0.616H89.1601V13H93.0481V8.608H98.1241C99.0781 8.608 99.7441 8.788 100.14 9.13C100.536 9.472 100.734 10.03 100.734 10.786V13H104.64V9.598C104.64 8.842 104.424 8.23 103.992 7.762ZM100.518 4.648C100.518 5.008 100.392 5.314 100.14 5.53C99.8881 5.746 99.4921 5.872 98.9521 5.872H93.0481V3.424H98.9521C99.4921 3.424 99.8881 3.55 100.14 3.766C100.392 3.982 100.518 4.27 100.518 4.63V4.648ZM126.509 8.824C130.775 8.824 132.899 7.438 132.899 4.684V4.522C132.899 1.786 130.775 0.417999 126.509 0.417999H116.213V13.018H120.497V8.824H126.509ZM120.497 3.28H126.437C127.751 3.28 128.417 3.73 128.417 4.612V4.666C128.417 5.548 127.751 5.998 126.437 5.998H120.497V3.28ZM147.673 0.327999V6.16C147.673 6.61 147.601 7.024 147.475 7.402C147.349 7.798 147.133 8.176 146.809 8.554C146.503 8.932 146.035 9.22 145.423 9.436C144.793 9.652 144.055 9.778 143.191 9.778C142.309 9.778 141.553 9.652 140.923 9.436C140.275 9.22 139.807 8.932 139.501 8.554C139.195 8.176 138.979 7.798 138.853 7.402C138.727 7.024 138.655 6.61 138.655 6.16V0.327999H134.371V6.394C134.371 6.772 134.389 7.132 134.443 7.51C134.497 7.87 134.605 8.284 134.767 8.734C134.947 9.184 135.145 9.598 135.415 9.994C135.667 10.372 136.009 10.768 136.459 11.146C136.891 11.524 137.413 11.848 137.989 12.118C138.565 12.388 139.267 12.604 140.113 12.766C140.941 12.928 141.877 13 142.885 13H143.551C144.883 13 146.071 12.856 147.115 12.532C148.141 12.226 148.951 11.83 149.545 11.362C150.139 10.894 150.625 10.354 151.003 9.724C151.381 9.112 151.633 8.518 151.759 7.996C151.885 7.456 151.957 6.916 151.957 6.394V0.327999H147.673ZM168.943 7.762C168.511 7.276 167.935 6.952 167.233 6.754C168.763 6.25 169.537 5.35 169.537 4.036V3.838C169.537 1.696 167.737 0.616 164.137 0.616H154.111V13H157.999V8.608H163.075C164.029 8.608 164.695 8.788 165.091 9.13C165.487 9.472 165.685 10.03 165.685 10.786V13H169.591V9.598C169.591 8.842 169.375 8.23 168.943 7.762ZM165.469 4.648C165.469 5.008 165.343 5.314 165.091 5.53C164.839 5.746 164.443 5.872 163.903 5.872H157.999V3.424H163.903C164.443 3.424 164.839 3.55 165.091 3.766C165.343 3.982 165.469 4.27 165.469 4.63V4.648ZM180.172 13.216H180.928C182.422 13.216 183.754 13.09 184.906 12.838C186.058 12.568 186.958 12.244 187.588 11.884C188.236 11.506 188.758 11.074 189.172 10.588C189.568 10.084 189.838 9.652 189.982 9.256C190.108 8.86 190.162 8.464 190.162 8.086V7.906H185.59C185.59 7.924 185.59 7.942 185.572 7.96C185.068 9.418 183.412 10.156 180.586 10.156C179.632 10.156 178.804 10.048 178.102 9.832C177.4 9.616 176.878 9.328 176.518 8.968C176.158 8.608 175.888 8.248 175.726 7.87C175.564 7.492 175.474 7.096 175.474 6.682V6.484C175.474 6.052 175.546 5.656 175.708 5.296C175.852 4.936 176.104 4.594 176.446 4.252C176.806 3.928 177.328 3.676 178.03 3.496C178.714 3.298 179.56 3.208 180.55 3.208C181.378 3.208 182.098 3.28 182.746 3.406C183.376 3.532 183.862 3.676 184.186 3.838C184.51 4 184.78 4.198 185.014 4.432C185.248 4.666 185.392 4.846 185.446 4.954C185.5 5.062 185.536 5.17 185.572 5.314H190.144V5.116C190.144 4.774 190.09 4.414 189.982 4.036C189.856 3.658 189.604 3.226 189.19 2.74C188.794 2.254 188.272 1.84 187.642 1.462C187.012 1.102 186.112 0.795999 184.96 0.526C183.79 0.274 182.458 0.147999 180.928 0.147999H180.172C178.624 0.147999 177.256 0.291999 176.104 0.598C174.934 0.885999 174.034 1.246 173.404 1.678C172.774 2.11 172.27 2.632 171.874 3.226C171.496 3.82 171.244 4.36 171.136 4.846C171.028 5.332 170.974 5.854 170.974 6.394V6.898C170.974 7.24 170.992 7.582 171.046 7.942C171.1 8.284 171.226 8.68 171.406 9.112C171.586 9.544 171.802 9.94 172.072 10.318C172.342 10.696 172.72 11.056 173.206 11.434C173.692 11.794 174.232 12.1 174.862 12.37C175.474 12.622 176.248 12.82 177.166 12.982C178.084 13.144 179.074 13.216 180.172 13.216ZM191.781 13H196.065V8.05H205.263V13H209.565V0.436H205.263V5.008H196.065V0.436H191.781V13ZM223.684 0.543999H217.294L210.616 12.982H214.828L215.998 10.714H224.98L226.15 12.982H230.38L223.684 0.543999ZM217.456 7.906L219.814 3.334H221.164L223.54 7.906H217.456ZM238.435 13.234H239.695C241.027 13.234 242.197 13.162 243.187 12.982C244.177 12.82 244.951 12.622 245.527 12.352C246.103 12.1 246.553 11.776 246.895 11.398C247.237 11.002 247.471 10.624 247.579 10.264C247.687 9.904 247.741 9.49 247.741 9.022V8.788C247.741 7.51 247.183 6.592 246.031 5.998C244.897 5.404 243.061 5.08 240.487 5.044L239.191 5.026L238.183 5.008C237.301 4.99 236.617 4.936 236.131 4.828C235.645 4.702 235.339 4.576 235.213 4.45C235.069 4.306 235.015 4.144 235.015 3.928C235.015 3.694 235.069 3.514 235.195 3.388C235.303 3.262 235.645 3.136 236.185 3.01C236.743 2.902 237.391 2.848 238.435 2.848H239.065C239.749 2.848 240.145 2.884 240.649 2.956C241.153 3.046 241.549 3.136 241.801 3.226C242.071 3.334 242.269 3.46 242.431 3.622C242.593 3.784 242.701 3.91 242.737 4C242.773 4.09 242.809 4.216 242.845 4.342H247.309V4.18C247.309 3.766 247.237 3.388 247.093 3.028C246.967 2.686 246.715 2.326 246.355 1.966C245.995 1.606 245.527 1.3 244.951 1.048C244.375 0.795999 243.619 0.598 242.647 0.436C241.693 0.274 240.577 0.202 239.335 0.202H238.057C236.851 0.202 235.789 0.274 234.889 0.436C233.971 0.579999 233.251 0.778 232.711 1.012C232.171 1.246 231.739 1.534 231.415 1.876C231.073 2.236 230.857 2.578 230.749 2.92C230.641 3.262 230.587 3.64 230.587 4.036V4.198C230.587 6.538 232.819 7.78 237.283 7.888L238.291 7.906L239.641 7.942C240.667 7.96 241.441 8.032 241.981 8.14C242.521 8.266 242.881 8.41 243.025 8.554C243.169 8.716 243.241 8.932 243.241 9.202C243.241 9.4 243.205 9.562 243.115 9.706C243.025 9.85 242.863 9.976 242.593 10.12C242.341 10.264 241.927 10.354 241.369 10.426C240.793 10.498 240.433 10.552 239.569 10.552H238.579C235.951 10.552 234.979 9.886 234.889 8.554H230.407V8.734C230.407 9.13 230.443 9.508 230.533 9.85C230.623 10.192 230.839 10.588 231.163 11.02C231.487 11.452 231.937 11.83 232.477 12.136C233.035 12.442 233.827 12.694 234.853 12.91C235.861 13.126 237.067 13.234 238.435 13.234ZM249.437 0.381999V13H264.125V10.066H253.685V7.996H263.693V5.116H253.685V3.244H263.927V0.381999H249.437Z" fill="white"/>
</svg>
