<svg width="352" height="258" viewBox="0 0 352 258" fill="none" xmlns="http://www.w3.org/2000/svg">
<path d="M308 179C308 161.534 304.585 144.239 297.951 128.103C291.317 111.967 281.593 97.305 269.334 84.9548C257.075 72.6046 242.522 62.8079 226.505 56.124C210.489 49.4401 193.322 46 175.986 46C158.649 46 141.483 49.4401 125.466 56.124C109.449 62.8079 94.8963 72.6046 82.6376 84.9548C70.379 97.305 60.6549 111.967 54.0206 128.103C47.7359 143.389 44.3404 159.715 44 176.24" stroke="#232A54"/>
<path opacity="0.4" d="M351 176C351 153.019 346.473 130.262 337.677 109.03C328.882 87.7984 315.99 68.5066 299.738 52.2563C283.486 36.0061 264.192 23.1157 242.958 14.3211C221.724 5.52651 198.965 0.999999 175.981 1C152.997 1 130.239 5.52651 109.004 14.3211C87.7701 23.1157 68.4761 36.0061 52.2241 52.2563C35.9721 68.5066 23.0803 87.7984 14.2848 109.03C5.95284 129.143 1.45133 150.624 1 172.369" stroke="#232A54"/>
<path d="M263 173C263 161.838 260.801 150.785 256.53 140.472C252.258 130.159 245.997 120.789 238.104 112.896C230.211 105.003 220.841 98.7419 210.528 94.4702C200.215 90.1986 189.162 88 178 88C166.838 88 155.785 90.1986 145.472 94.4702C135.159 98.7419 125.789 105.003 117.896 112.896C110.003 120.789 103.742 130.159 99.4702 140.472C95.1986 150.785 93 161.838 93 173L178 173H263Z" fill="url(#paint0_linear_1_31)"/>
<defs>
<linearGradient id="paint0_linear_1_31" x1="178" y1="88" x2="178" y2="173" gradientUnits="userSpaceOnUse">
<stop stop-color="#48518A" stop-opacity="0.3"/>
<stop offset="1" stop-color="#0D1335" stop-opacity="0"/>
</linearGradient>
</defs>
</svg>
